<svg xmlns="http://www.w3.org/2000/svg" viewBox="0 0 87.13 82.93"><defs><style>.cls-1{fill:#98989a;}</style></defs><g id="Capa_2" data-name="Capa 2"><g id="Diseño"><path class="cls-1" d="M77.14,55.47h0a7.52,7.52,0,1,1,7.53-7.53,7.54,7.54,0,0,1-7.53,7.53M20.21,58.39c-1.52,0-1.69-2.2-1.69-3.15V51.89l.26,0,.2,0h.15l.3,0h.13c.76.07,1.44.1,2.07.11h.07c.63,0,1.28,0,2.07-.11h.15l.29,0h.18l.17,0,.25,0v3.35c0,.95-.16,3.15-1.68,3.15ZM2.46,32v-.35H7.3v.4A14.2,14.2,0,0,0,17.56,45.5a16,16,0,0,0,9.67,0A14.21,14.21,0,0,0,37.5,32.05v-.39h3.37V32c0,8.22-6.34,15.46-15.07,17.21a20.44,20.44,0,0,1-4.13.41c-.7,0-1.4,0-2.1-.1a20.09,20.09,0,0,1-2-.31C8.8,47.47,2.46,40.23,2.46,32M12.58,2.5a1.69,1.69,0,1,1-1.33,1.32A1.69,1.69,0,0,1,12.58,2.5M30.76,5.81a1.69,1.69,0,0,1-2-2A1.68,1.68,0,0,1,30.1,2.5a1.69,1.69,0,0,1,2,2,1.71,1.71,0,0,1-1.33,1.33M87,46.53a8.36,8.36,0,0,0-7.17-8.27L78.37,38V35.19c0-7.2-5.46-13.06-12.18-13.06-6.52,0-12,5.68-12.18,12.67h0V63.57c0,9.32-7,16.9-15.55,16.9S22.9,72.89,22.9,63.57V60.85h.23c2,0,4.15-1.47,4.15-5.61V51.4l.17,0C36.81,49,43.34,41,43.34,32V30.56A1.36,1.36,0,0,0,42,29.2H40.42L40.36,10a7.08,7.08,0,0,0-5.82-6.92L34.4,3V3A4.22,4.22,0,0,0,32.7.72,4.13,4.13,0,1,0,32.09,8a4.26,4.26,0,0,0,2.22-2.33l0-.11.19.06A4.64,4.64,0,0,1,37.89,10L38,29.2H36.4A1.36,1.36,0,0,0,35,30.56v1.5a11.81,11.81,0,0,1-8.57,11.11,13.45,13.45,0,0,1-8.16,0,11.78,11.78,0,0,1-8.55-11.1v-1.5A1.36,1.36,0,0,0,8.4,29.2h-3V10A4.62,4.62,0,0,1,8.79,5.56l.2,0,.07.19A4.19,4.19,0,1,0,9,2.89l0,.13L8.8,3a7.05,7.05,0,0,0-5.88,7V29.2H1.37A1.36,1.36,0,0,0,0,30.56V32c0,9,6.53,17,15.89,19.34l.17,0v3.84c0,4.14,2.14,5.61,4.15,5.61h.23v2.72c0,10.68,8.08,19.36,18,19.36s18-8.68,18-19.36V34.88c.14-5.67,4.5-10.28,9.71-10.28s9.72,4.75,9.72,10.59V38l-.2,0A10,10,0,1,0,87,46.53"/></g></g></svg>