<svg id="visual" viewBox="0 0 1920 1080" width="1920" height="1080" xmlns="http://www.w3.org/2000/svg" xmlns:xlink="http://www.w3.org/1999/xlink" version="1.1"><rect x="0" y="0" width="1920" height="1080" fill="#001220"></rect><defs><linearGradient id="grad1_0" x1="43.8%" y1="0%" x2="100%" y2="100%"><stop offset="14.444444444444446%" stop-color="#87dc63" stop-opacity="1"></stop><stop offset="85.55555555555554%" stop-color="#87dc63" stop-opacity="1"></stop></linearGradient></defs><defs><linearGradient id="grad1_1" x1="43.8%" y1="0%" x2="100%" y2="100%"><stop offset="14.444444444444446%" stop-color="#87dc63" stop-opacity="1"></stop><stop offset="85.55555555555554%" stop-color="#00b577" stop-opacity="1"></stop></linearGradient></defs><defs><linearGradient id="grad1_2" x1="43.8%" y1="0%" x2="100%" y2="100%"><stop offset="14.444444444444446%" stop-color="#008b7d" stop-opacity="1"></stop><stop offset="85.55555555555554%" stop-color="#00b577" stop-opacity="1"></stop></linearGradient></defs><defs><linearGradient id="grad1_3" x1="43.8%" y1="0%" x2="100%" y2="100%"><stop offset="14.444444444444446%" stop-color="#008b7d" stop-opacity="1"></stop><stop offset="85.55555555555554%" stop-color="#005f6e" stop-opacity="1"></stop></linearGradient></defs><defs><linearGradient id="grad1_4" x1="43.8%" y1="0%" x2="100%" y2="100%"><stop offset="14.444444444444446%" stop-color="#00374c" stop-opacity="1"></stop><stop offset="85.55555555555554%" stop-color="#005f6e" stop-opacity="1"></stop></linearGradient></defs><defs><linearGradient id="grad1_5" x1="43.8%" y1="0%" x2="100%" y2="100%"><stop offset="14.444444444444446%" stop-color="#00374c" stop-opacity="1"></stop><stop offset="85.55555555555554%" stop-color="#001220" stop-opacity="1"></stop></linearGradient></defs><defs><linearGradient id="grad2_0" x1="0%" y1="0%" x2="56.3%" y2="100%"><stop offset="14.444444444444446%" stop-color="#87dc63" stop-opacity="1"></stop><stop offset="85.55555555555554%" stop-color="#87dc63" stop-opacity="1"></stop></linearGradient></defs><defs><linearGradient id="grad2_1" x1="0%" y1="0%" x2="56.3%" y2="100%"><stop offset="14.444444444444446%" stop-color="#00b577" stop-opacity="1"></stop><stop offset="85.55555555555554%" stop-color="#87dc63" stop-opacity="1"></stop></linearGradient></defs><defs><linearGradient id="grad2_2" x1="0%" y1="0%" x2="56.3%" y2="100%"><stop offset="14.444444444444446%" stop-color="#00b577" stop-opacity="1"></stop><stop offset="85.55555555555554%" stop-color="#008b7d" stop-opacity="1"></stop></linearGradient></defs><defs><linearGradient id="grad2_3" x1="0%" y1="0%" x2="56.3%" y2="100%"><stop offset="14.444444444444446%" stop-color="#005f6e" stop-opacity="1"></stop><stop offset="85.55555555555554%" stop-color="#008b7d" stop-opacity="1"></stop></linearGradient></defs><defs><linearGradient id="grad2_4" x1="0%" y1="0%" x2="56.3%" y2="100%"><stop offset="14.444444444444446%" stop-color="#005f6e" stop-opacity="1"></stop><stop offset="85.55555555555554%" stop-color="#00374c" stop-opacity="1"></stop></linearGradient></defs><defs><linearGradient id="grad2_5" x1="0%" y1="0%" x2="56.3%" y2="100%"><stop offset="14.444444444444446%" stop-color="#001220" stop-opacity="1"></stop><stop offset="85.55555555555554%" stop-color="#00374c" stop-opacity="1"></stop></linearGradient></defs><g transform="translate(1920, 0)"><path d="M0 594C-59.2 600.2 -118.5 606.4 -151.4 565.1C-184.4 523.8 -191 435 -238.5 413.1C-286 391.2 -374.3 436.1 -420 420C-465.7 404 -468.7 327 -463.3 267.5C-458 208 -444.2 166.1 -464.6 124.5C-485 82.8 -539.5 41.4 -594 0L0 0Z" fill="#002437"></path><path d="M0 495C-49.4 500.1 -98.7 505.3 -126.2 470.9C-153.6 436.5 -159.2 362.5 -198.7 344.2C-238.3 326 -312 363.4 -350 350C-388.1 336.6 -390.6 272.5 -386.1 222.9C-381.6 173.4 -370.2 138.5 -387.2 103.7C-404.2 69 -449.6 34.5 -495 0L0 0Z" fill="#004b5f"></path><path d="M0 396C-39.5 400.1 -79 404.2 -100.9 376.7C-122.9 349.2 -127.3 290 -159 275.4C-190.7 260.8 -249.6 290.7 -280 280C-310.5 269.3 -312.5 218 -308.9 178.3C-305.3 138.7 -296.1 110.8 -309.7 83C-323.3 55.2 -359.7 27.6 -396 0L0 0Z" fill="#007578"></path><path d="M0 297C-29.6 300.1 -59.2 303.2 -75.7 282.5C-92.2 261.9 -95.5 217.5 -119.2 206.5C-143 195.6 -187.2 218 -210 210C-232.8 202 -234.3 163.5 -231.7 133.8C-229 104 -222.1 83.1 -232.3 62.2C-242.5 41.4 -269.7 20.7 -297 0L0 0Z" fill="#00a07c"></path><path d="M0 198C-19.7 200.1 -39.5 202.1 -50.5 188.4C-61.5 174.6 -63.7 145 -79.5 137.7C-95.3 130.4 -124.8 145.4 -140 140C-155.2 134.7 -156.2 109 -154.4 89.2C-152.7 69.3 -148.1 55.4 -154.9 41.5C-161.7 27.6 -179.8 13.8 -198 0L0 0Z" fill="#53c96e"></path><path d="M0 99C-9.9 100 -19.7 101.1 -25.2 94.2C-30.7 87.3 -31.8 72.5 -39.7 68.8C-47.7 65.2 -62.4 72.7 -70 70C-77.6 67.3 -78.1 54.5 -77.2 44.6C-76.3 34.7 -74 27.7 -77.4 20.7C-80.8 13.8 -89.9 6.9 -99 0L0 0Z" fill="#87dc63"></path></g><g transform="translate(0, 1080)"><path d="M0 -594C52.1 -591 104.2 -588 153.7 -573.8C203.2 -559.6 250.1 -534.2 288.5 -499.7C326.9 -465.2 356.8 -421.5 374.8 -374.8C392.8 -328 398.9 -278.2 411.4 -237.5C423.9 -196.8 442.8 -165.1 474.3 -127.1C505.8 -89 549.9 -44.5 594 0L0 0Z" fill="#002437"></path><path d="M0 -495C43.4 -492.5 86.9 -490 128.1 -478.1C169.4 -466.3 208.4 -445.2 240.4 -416.4C272.4 -387.7 297.3 -351.3 312.3 -312.3C327.3 -273.4 332.4 -231.8 342.8 -197.9C353.2 -164 369 -137.6 395.2 -105.9C421.5 -74.2 458.2 -37.1 495 0L0 0Z" fill="#004b5f"></path><path d="M0 -396C34.7 -394 69.5 -392 102.5 -382.5C135.5 -373 166.7 -356.1 192.3 -333.1C217.9 -310.1 237.8 -281 249.8 -249.8C261.8 -218.7 265.9 -185.5 274.2 -158.3C282.6 -131.2 295.2 -110.1 316.2 -84.7C337.2 -59.3 366.6 -29.7 396 0L0 0Z" fill="#007578"></path><path d="M0 -297C26.1 -295.5 52.1 -294 76.9 -286.9C101.6 -279.8 125.1 -267.1 144.2 -249.8C163.4 -232.6 178.4 -210.8 187.4 -187.4C196.4 -164 199.4 -139.1 205.7 -118.8C211.9 -98.4 221.4 -82.6 237.1 -63.5C252.9 -44.5 274.9 -22.3 297 0L0 0Z" fill="#00a07c"></path><path d="M0 -198C17.4 -197 34.7 -196 51.2 -191.3C67.7 -186.5 83.4 -178.1 96.2 -166.6C109 -155.1 118.9 -140.5 124.9 -124.9C130.9 -109.3 133 -92.7 137.1 -79.2C141.3 -65.6 147.6 -55 158.1 -42.4C168.6 -29.7 183.3 -14.8 198 0L0 0Z" fill="#53c96e"></path><path d="M0 -99C8.7 -98.5 17.4 -98 25.6 -95.6C33.9 -93.3 41.7 -89 48.1 -83.3C54.5 -77.5 59.5 -70.3 62.5 -62.5C65.5 -54.7 66.5 -46.4 68.6 -39.6C70.6 -32.8 73.8 -27.5 79 -21.2C84.3 -14.8 91.6 -7.4 99 0L0 0Z" fill="#87dc63"></path></g></svg>