<svg id="visual" viewBox="0 0 1920 1080" width="1920" height="1080" xmlns="http://www.w3.org/2000/svg" xmlns:xlink="http://www.w3.org/1999/xlink" version="1.1"><rect x="0" y="0" width="1920" height="1080" fill="#001220"></rect><defs><linearGradient id="grad1_0" x1="43.8%" y1="0%" x2="100%" y2="100%"><stop offset="14.444444444444446%" stop-color="#005f59" stop-opacity="1"></stop><stop offset="85.55555555555554%" stop-color="#005f59" stop-opacity="1"></stop></linearGradient></defs><defs><linearGradient id="grad1_1" x1="43.8%" y1="0%" x2="100%" y2="100%"><stop offset="14.444444444444446%" stop-color="#005f59" stop-opacity="1"></stop><stop offset="85.55555555555554%" stop-color="#004f53" stop-opacity="1"></stop></linearGradient></defs><defs><linearGradient id="grad1_2" x1="43.8%" y1="0%" x2="100%" y2="100%"><stop offset="14.444444444444446%" stop-color="#003f4a" stop-opacity="1"></stop><stop offset="85.55555555555554%" stop-color="#004f53" stop-opacity="1"></stop></linearGradient></defs><defs><linearGradient id="grad1_3" x1="43.8%" y1="0%" x2="100%" y2="100%"><stop offset="14.444444444444446%" stop-color="#003f4a" stop-opacity="1"></stop><stop offset="85.55555555555554%" stop-color="#002f3e" stop-opacity="1"></stop></linearGradient></defs><defs><linearGradient id="grad1_4" x1="43.8%" y1="0%" x2="100%" y2="100%"><stop offset="14.444444444444446%" stop-color="#00212f" stop-opacity="1"></stop><stop offset="85.55555555555554%" stop-color="#002f3e" stop-opacity="1"></stop></linearGradient></defs><defs><linearGradient id="grad1_5" x1="43.8%" y1="0%" x2="100%" y2="100%"><stop offset="14.444444444444446%" stop-color="#00212f" stop-opacity="1"></stop><stop offset="85.55555555555554%" stop-color="#001220" stop-opacity="1"></stop></linearGradient></defs><defs><linearGradient id="grad2_0" x1="0%" y1="0%" x2="56.3%" y2="100%"><stop offset="14.444444444444446%" stop-color="#005f59" stop-opacity="1"></stop><stop offset="85.55555555555554%" stop-color="#005f59" stop-opacity="1"></stop></linearGradient></defs><defs><linearGradient id="grad2_1" x1="0%" y1="0%" x2="56.3%" y2="100%"><stop offset="14.444444444444446%" stop-color="#004f53" stop-opacity="1"></stop><stop offset="85.55555555555554%" stop-color="#005f59" stop-opacity="1"></stop></linearGradient></defs><defs><linearGradient id="grad2_2" x1="0%" y1="0%" x2="56.3%" y2="100%"><stop offset="14.444444444444446%" stop-color="#004f53" stop-opacity="1"></stop><stop offset="85.55555555555554%" stop-color="#003f4a" stop-opacity="1"></stop></linearGradient></defs><defs><linearGradient id="grad2_3" x1="0%" y1="0%" x2="56.3%" y2="100%"><stop offset="14.444444444444446%" stop-color="#002f3e" stop-opacity="1"></stop><stop offset="85.55555555555554%" stop-color="#003f4a" stop-opacity="1"></stop></linearGradient></defs><defs><linearGradient id="grad2_4" x1="0%" y1="0%" x2="56.3%" y2="100%"><stop offset="14.444444444444446%" stop-color="#002f3e" stop-opacity="1"></stop><stop offset="85.55555555555554%" stop-color="#00212f" stop-opacity="1"></stop></linearGradient></defs><defs><linearGradient id="grad2_5" x1="0%" y1="0%" x2="56.3%" y2="100%"><stop offset="14.444444444444446%" stop-color="#001220" stop-opacity="1"></stop><stop offset="85.55555555555554%" stop-color="#00212f" stop-opacity="1"></stop></linearGradient></defs><g transform="translate(1920, 0)"><path d="M0 540C-72.8 536.1 -145.6 532.2 -206.6 498.9C-267.7 465.6 -317.1 402.9 -341.5 341.5C-366 280.2 -365.6 220.1 -394.5 163.4C-423.4 106.7 -481.7 53.4 -540 0L0 0Z" fill="#021a28"></path><path d="M0 450C-60.7 446.7 -121.3 443.5 -172.2 415.7C-223.1 388 -264.2 335.8 -284.6 284.6C-305 233.5 -304.6 183.4 -328.7 136.2C-352.9 88.9 -401.4 44.5 -450 0L0 0Z" fill="#002837"></path><path d="M0 360C-48.5 357.4 -97.1 354.8 -137.8 332.6C-178.5 310.4 -211.4 268.6 -227.7 227.7C-244 186.8 -243.7 146.7 -263 108.9C-282.3 71.1 -321.1 35.6 -360 0L0 0Z" fill="#003744"></path><path d="M0 270C-36.4 268 -72.8 266.1 -103.3 249.4C-133.9 232.8 -158.5 201.5 -170.8 170.8C-183 140.1 -182.8 110.1 -197.2 81.7C-211.7 53.4 -240.9 26.7 -270 0L0 0Z" fill="#00474f"></path><path d="M0 180C-24.3 178.7 -48.5 177.4 -68.9 166.3C-89.2 155.2 -105.7 134.3 -113.8 113.8C-122 93.4 -121.9 73.4 -131.5 54.5C-141.1 35.6 -160.6 17.8 -180 0L0 0Z" fill="#005756"></path><path d="M0 90C-12.1 89.3 -24.3 88.7 -34.4 83.1C-44.6 77.6 -52.8 67.2 -56.9 56.9C-61 46.7 -60.9 36.7 -65.7 27.2C-70.6 17.8 -80.3 8.9 -90 0L0 0Z" fill="#005f59"></path></g><g transform="translate(0, 1080)"><path d="M0 -540C81.4 -543.2 162.8 -546.3 206.6 -498.9C250.5 -451.5 256.6 -353.4 299.8 -299.8C343 -246.2 423.1 -237 469.3 -194.4C515.5 -151.8 527.8 -75.9 540 0L0 0Z" fill="#021a28"></path><path d="M0 -450C67.9 -452.6 135.7 -455.3 172.2 -415.7C208.7 -376.2 213.9 -294.5 249.8 -249.8C285.8 -205.2 352.6 -197.5 391.1 -162C429.6 -126.5 439.8 -63.3 450 0L0 0Z" fill="#002837"></path><path d="M0 -360C54.3 -362.1 108.6 -364.2 137.8 -332.6C167 -301 171.1 -235.6 199.9 -199.9C228.7 -164.1 282.1 -158 312.9 -129.6C343.7 -101.2 351.8 -50.6 360 0L0 0Z" fill="#003744"></path><path d="M0 -270C40.7 -271.6 81.4 -273.2 103.3 -249.4C125.2 -225.7 128.3 -176.7 149.9 -149.9C171.5 -123.1 211.6 -118.5 234.7 -97.2C257.8 -75.9 263.9 -38 270 0L0 0Z" fill="#00474f"></path><path d="M0 -180C27.1 -181.1 54.3 -182.1 68.9 -166.3C83.5 -150.5 85.5 -117.8 99.9 -99.9C114.3 -82.1 141 -79 156.4 -64.8C171.8 -50.6 175.9 -25.3 180 0L0 0Z" fill="#005756"></path><path d="M0 -90C13.6 -90.5 27.1 -91.1 34.4 -83.1C41.7 -75.2 42.8 -58.9 50 -50C57.2 -41 70.5 -39.5 78.2 -32.4C85.9 -25.3 88 -12.7 90 0L0 0Z" fill="#005f59"></path></g></svg>