<svg id="visual" viewBox="0 0 1920 1080" width="1920" height="1080" xmlns="http://www.w3.org/2000/svg" xmlns:xlink="http://www.w3.org/1999/xlink" version="1.1"><rect x="0" y="0" width="1920" height="1080" fill="#001220"></rect><defs><linearGradient id="grad1_0" x1="43.8%" y1="0%" x2="100%" y2="100%"><stop offset="14.444444444444446%" stop-color="#862f95" stop-opacity="1"></stop><stop offset="85.55555555555554%" stop-color="#862f95" stop-opacity="1"></stop></linearGradient></defs><defs><linearGradient id="grad1_1" x1="43.8%" y1="0%" x2="100%" y2="100%"><stop offset="14.444444444444446%" stop-color="#862f95" stop-opacity="1"></stop><stop offset="85.55555555555554%" stop-color="#5a3387" stop-opacity="1"></stop></linearGradient></defs><defs><linearGradient id="grad1_2" x1="43.8%" y1="0%" x2="100%" y2="100%"><stop offset="14.444444444444446%" stop-color="#323072" stop-opacity="1"></stop><stop offset="85.55555555555554%" stop-color="#5a3387" stop-opacity="1"></stop></linearGradient></defs><defs><linearGradient id="grad1_3" x1="43.8%" y1="0%" x2="100%" y2="100%"><stop offset="14.444444444444446%" stop-color="#323072" stop-opacity="1"></stop><stop offset="85.55555555555554%" stop-color="#102958" stop-opacity="1"></stop></linearGradient></defs><defs><linearGradient id="grad1_4" x1="43.8%" y1="0%" x2="100%" y2="100%"><stop offset="14.444444444444446%" stop-color="#001f3c" stop-opacity="1"></stop><stop offset="85.55555555555554%" stop-color="#102958" stop-opacity="1"></stop></linearGradient></defs><defs><linearGradient id="grad1_5" x1="43.8%" y1="0%" x2="100%" y2="100%"><stop offset="14.444444444444446%" stop-color="#001f3c" stop-opacity="1"></stop><stop offset="85.55555555555554%" stop-color="#001220" stop-opacity="1"></stop></linearGradient></defs><defs><linearGradient id="grad2_0" x1="0%" y1="0%" x2="56.3%" y2="100%"><stop offset="14.444444444444446%" stop-color="#862f95" stop-opacity="1"></stop><stop offset="85.55555555555554%" stop-color="#862f95" stop-opacity="1"></stop></linearGradient></defs><defs><linearGradient id="grad2_1" x1="0%" y1="0%" x2="56.3%" y2="100%"><stop offset="14.444444444444446%" stop-color="#5a3387" stop-opacity="1"></stop><stop offset="85.55555555555554%" stop-color="#862f95" stop-opacity="1"></stop></linearGradient></defs><defs><linearGradient id="grad2_2" x1="0%" y1="0%" x2="56.3%" y2="100%"><stop offset="14.444444444444446%" stop-color="#5a3387" stop-opacity="1"></stop><stop offset="85.55555555555554%" stop-color="#323072" stop-opacity="1"></stop></linearGradient></defs><defs><linearGradient id="grad2_3" x1="0%" y1="0%" x2="56.3%" y2="100%"><stop offset="14.444444444444446%" stop-color="#102958" stop-opacity="1"></stop><stop offset="85.55555555555554%" stop-color="#323072" stop-opacity="1"></stop></linearGradient></defs><defs><linearGradient id="grad2_4" x1="0%" y1="0%" x2="56.3%" y2="100%"><stop offset="14.444444444444446%" stop-color="#102958" stop-opacity="1"></stop><stop offset="85.55555555555554%" stop-color="#001f3c" stop-opacity="1"></stop></linearGradient></defs><defs><linearGradient id="grad2_5" x1="0%" y1="0%" x2="56.3%" y2="100%"><stop offset="14.444444444444446%" stop-color="#001220" stop-opacity="1"></stop><stop offset="85.55555555555554%" stop-color="#001f3c" stop-opacity="1"></stop></linearGradient></defs><g transform="translate(1920, 0)"><path d="M0 594C-82.6 593.4 -165.2 592.9 -227.3 548.8C-289.4 504.7 -331 417.1 -343.7 343.7C-356.3 270.2 -340 211 -376.9 156.1C-413.8 101.2 -503.9 50.6 -594 0L0 0Z" fill="#00192e"></path><path d="M0 495C-68.8 494.5 -137.7 494.1 -189.4 457.3C-241.2 420.6 -275.8 347.6 -286.4 286.4C-296.9 225.2 -283.4 175.9 -314.1 130.1C-344.9 84.4 -419.9 42.2 -495 0L0 0Z" fill="#03244a"></path><path d="M0 396C-55.1 395.6 -110.1 395.3 -151.5 365.9C-192.9 336.5 -220.7 278 -229.1 229.1C-237.5 180.2 -226.7 140.7 -251.3 104.1C-275.9 67.5 -335.9 33.7 -396 0L0 0Z" fill="#212d66"></path><path d="M0 297C-41.3 296.7 -82.6 296.4 -113.7 274.4C-144.7 252.3 -165.5 208.5 -171.8 171.8C-178.2 135.1 -170 105.5 -188.5 78.1C-206.9 50.6 -252 25.3 -297 0L0 0Z" fill="#46337d"></path><path d="M0 198C-27.5 197.8 -55.1 197.6 -75.8 182.9C-96.5 168.2 -110.3 139 -114.6 114.6C-118.8 90.1 -113.3 70.3 -125.6 52C-137.9 33.7 -168 16.9 -198 0L0 0Z" fill="#70328f"></path><path d="M0 99C-13.8 98.9 -27.5 98.8 -37.9 91.5C-48.2 84.1 -55.2 69.5 -57.3 57.3C-59.4 45 -56.7 35.2 -62.8 26C-69 16.9 -84 8.4 -99 0L0 0Z" fill="#862f95"></path></g><g transform="translate(0, 1080)"><path d="M0 -594C31.9 -481.6 63.8 -369.1 148.5 -358.5C233.2 -347.8 370.8 -438.9 420 -420C469.2 -401.2 430.1 -272.4 444.4 -184.1C458.7 -95.7 526.3 -47.9 594 0L0 0Z" fill="#00192e"></path><path d="M0 -495C26.6 -401.3 53.1 -307.6 123.7 -298.7C194.3 -289.8 309 -365.7 350 -350C391 -334.3 358.4 -227 370.3 -153.4C382.2 -79.8 438.6 -39.9 495 0L0 0Z" fill="#03244a"></path><path d="M0 -396C21.3 -321 42.5 -246.1 99 -239C155.5 -231.9 247.2 -292.6 280 -280C312.8 -267.4 286.7 -181.6 296.3 -122.7C305.8 -63.8 350.9 -31.9 396 0L0 0Z" fill="#212d66"></path><path d="M0 -297C15.9 -240.8 31.9 -184.6 74.2 -179.2C116.6 -173.9 185.4 -219.4 210 -210C234.6 -200.6 215.1 -136.2 222.2 -92C229.3 -47.9 263.2 -23.9 297 0L0 0Z" fill="#46337d"></path><path d="M0 -198C10.6 -160.5 21.3 -123 49.5 -119.5C77.7 -115.9 123.6 -146.3 140 -140C156.4 -133.7 143.4 -90.8 148.1 -61.4C152.9 -31.9 175.4 -16 198 0L0 0Z" fill="#70328f"></path><path d="M0 -99C5.3 -80.3 10.6 -61.5 24.7 -59.7C38.9 -58 61.8 -73.1 70 -70C78.2 -66.9 71.7 -45.4 74.1 -30.7C76.4 -16 87.7 -8 99 0L0 0Z" fill="#862f95"></path></g></svg>