<svg width="1920" height="2000" viewBox="0 0 1920 2000" fill="none" xmlns="http://www.w3.org/2000/svg">
<g clip-path="url(#clip0_58_2)">
<path d="M0 1565.69L29.2 1672.2C58.3 1778.71 116.7 1991.73 174.8 1896.94C233 1802.5 291 1399.89 349.2 1364.39C407.3 1328.88 465.7 1660.48 523.8 1873.5C582 2086.52 640 2180.96 698.2 2098.24C756.3 2015.52 814.7 1754.92 872.8 1648.41C931 1541.9 989 1589.48 1047.2 1707.7C1105.3 1825.93 1163.7 2015.52 1221.8 2015.52C1280 2015.52 1338 1825.93 1396.2 1838C1454.3 1849.72 1512.7 2062.74 1570.8 2062.74C1629 2062.74 1687 1849.72 1745.2 1695.99C1803.3 1541.9 1861.7 1447.46 1890.8 1399.89L1920 1352.67V0H1890.8C1861.7 0 1803.3 0 1745.2 0C1687 0 1629 0 1570.8 0C1512.7 0 1454.3 0 1396.2 0C1338 0 1280 0 1221.8 0C1163.7 0 1105.3 0 1047.2 0C989 0 931 0 872.8 0C814.7 0 756.3 0 698.2 0C640 0 582 0 523.8 0C465.7 0 407.3 0 349.2 0C291 0 233 0 174.8 0C116.7 0 58.3 0 29.2 0H0V1565.69Z" fill="#001220"/>
<path d="M0 1288L29.2 1239.33C58.3 1190.52 116.7 1093.19 174.8 1039.56C233 985.926 291 976.28 349.2 985.926C407.3 995.717 465.7 1024.95 523.8 1034.74C582 1044.38 640 1034.74 698.2 1010.33C756.3 985.926 814.7 947.052 872.8 976.28C931 1005.51 989 1102.84 1047.2 1146.68C1105.3 1190.52 1163.7 1180.88 1221.8 1132.07C1280 1083.4 1338 995.717 1396.2 990.894C1454.3 985.926 1512.7 1063.97 1570.8 1127.24C1629 1190.52 1687 1239.33 1745.2 1263.59C1803.3 1288 1861.7 1288 1890.8 1288H1920V379L1890.8 398.437C1861.7 418.02 1803.3 456.893 1745.2 520.319C1687 583.598 1629 671.283 1570.8 671.283C1512.7 671.283 1454.3 583.598 1396.2 578.775C1338 573.807 1280 651.846 1221.8 651.846C1163.7 651.846 1105.3 573.807 1047.2 525.141C989 476.476 931 456.893 872.8 500.736C814.7 544.578 756.3 651.846 698.2 685.897C640 719.948 582 773.582 523.8 685.897C465.7 598.212 407.3 671.283 349.2 685.897C291 700.511 218.7 647.023 160.5 685.897C102.4 724.917 58.3 554.37 29.2 510.527L0 466.685V1288Z" fill="#033040"/>
<path d="M0 1732.31L29.2 1703.83C58.3 1675.23 116.7 1618.26 174.8 1601.88C233 1585.63 291 1610.07 349.2 1626.33C407.3 1642.71 465.7 1650.78 523.8 1634.52C582 1618.26 640 1577.44 698.2 1532.7C756.3 1487.83 814.7 1438.94 872.8 1447.13C931 1455.2 989 1520.47 1047.2 1544.92C1105.3 1569.37 1163.7 1552.99 1221.8 1544.92C1280 1536.73 1338 1536.73 1396.2 1544.92C1454.3 1552.99 1512.7 1569.37 1570.8 1597.85C1629 1626.33 1687 1667.16 1745.2 1716.05C1803.3 1764.95 1861.7 1821.91 1890.8 1850.52L1920 1879V996.431H1890.8C1861.7 996.431 1803.3 996.431 1745.2 976.017C1687 955.725 1629 914.897 1570.8 861.968C1512.7 809.038 1454.3 743.762 1396.2 747.918C1338 751.952 1280 825.296 1221.8 866.001C1163.7 906.829 1105.3 914.897 1047.2 878.225C989 841.554 902.7 980.173 844.5 955.725C786.4 931.277 709.1 857.811 651 878.225C592.8 898.639 582 792.658 523.8 784.59C465.7 776.4 407.3 751.952 349.2 743.762C291 735.694 233 743.762 174.8 788.624C116.7 833.486 58.3 914.897 29.2 955.725L0 996.431V1732.31Z" fill="#00505E"/>
<path d="M0 2001H29.2C58.3 2001 116.7 2001 174.8 2001C233 2001 291 2001 349.2 2001C407.3 2001 465.7 2001 523.8 2001C582 2001 640 2001 698.2 2001C756.3 2001 814.7 2001 872.8 2001C931 2001 989 2001 1047.2 2001C1105.3 2001 1163.7 2001 1221.8 2001C1280 2001 1338 2001 1396.2 2001C1454.3 2001 1512.7 2001 1570.8 2001C1629 2001 1687 2001 1745.2 2001C1803.3 2001 1861.7 2001 1890.8 2001H1920V1859L1890.8 1835.7C1861.7 1812.3 1803.3 1765.7 1745.2 1762.3C1687 1759 1629 1799 1570.8 1809C1512.7 1819 1454.3 1799 1396.2 1785.7C1338 1772.3 1280 1765.7 1221.8 1752.3C1163.7 1739 1105.3 1719 1047.2 1705.7C989 1692.3 931 1685.7 872.8 1709C814.7 1732.3 756.3 1785.7 698.2 1812.3C640 1839 582 1839 523.8 1822.3C465.7 1805.7 407.3 1772.3 349.2 1759C291 1745.7 233 1752.3 174.8 1755.7C116.7 1759 58.3 1759 29.2 1759H0V2001Z" fill="#009473"/>
<path d="M0 1761.8H29.2C58.3 1761.8 116.7 1761.8 174.8 1758.5C233 1755.1 291 1748.5 349.2 1761.8C407.3 1775.1 465.7 1808.5 523.8 1825.1C582 1841.8 640 1841.8 698.2 1815.1C756.3 1788.5 814.7 1735.1 872.8 1711.8C931 1688.5 989 1695.1 1047.2 1708.5C1105.3 1721.8 1163.7 1741.8 1221.8 1755.1C1280 1768.5 1338 1775.1 1396.2 1788.5C1454.3 1801.8 1512.7 1821.8 1570.8 1811.8C1629 1801.8 1687 1761.8 1745.2 1765.1C1803.3 1768.5 1861.7 1815.1 1890.8 1838.5L1920 1861.8V1719.8L1890.8 1696.5C1861.7 1673.1 1803.3 1626.5 1745.2 1586.5C1687 1546.5 1629 1513.1 1570.8 1489.8C1512.7 1466.5 1454.3 1417.1 1396.2 1410.5C1338 1403.8 1287.7 1403.8 1229.5 1410.5C1171.4 1417.1 1120.1 1529.5 1062 1509.5C1003.8 1489.5 931 1373.1 872.8 1366.5C814.7 1359.8 735.1 1360.1 677 1396.8C618.8 1433.4 582 1506.5 523.8 1519.8C465.7 1533.1 415.1 1472.9 357 1459.5C298.8 1446.2 227.2 1446.2 169 1459.5C110.9 1472.9 58.3 1553.1 29.2 1576.5L0 1599.8V1761.8Z" fill="#007272"/>
</g>
<defs>
<clipPath id="clip0_58_2">
<rect width="1920" height="2000" fill="white"/>
</clipPath>
</defs>
</svg>
