<svg id="visual" viewBox="0 0 1920 2000" width="1920" height="2000" xmlns="http://www.w3.org/2000/svg" xmlns:xlink="http://www.w3.org/1999/xlink" version="1.1"><path d="M0 441L29.2 471C58.3 501 116.7 561 174.8 534.3C233 507.7 291 394.3 349.2 384.3C407.3 374.3 465.7 467.7 523.8 527.7C582 587.7 640 614.3 698.2 591C756.3 567.7 814.7 494.3 872.8 464.3C931 434.3 989 447.7 1047.2 481C1105.3 514.3 1163.7 567.7 1221.8 567.7C1280 567.7 1338 514.3 1396.2 517.7C1454.3 521 1512.7 581 1570.8 581C1629 581 1687 521 1745.2 477.7C1803.3 434.3 1861.7 407.7 1890.8 394.3L1920 381L1920 0L1890.8 0C1861.7 0 1803.3 0 1745.2 0C1687 0 1629 0 1570.8 0C1512.7 0 1454.3 0 1396.2 0C1338 0 1280 0 1221.8 0C1163.7 0 1105.3 0 1047.2 0C989 0 931 0 872.8 0C814.7 0 756.3 0 698.2 0C640 0 582 0 523.8 0C465.7 0 407.3 0 349.2 0C291 0 233 0 174.8 0C116.7 0 58.3 0 29.2 0L0 0Z" fill="#001220"></path><path d="M0 1001L29.2 967.7C58.3 934.3 116.7 867.7 174.8 831C233 794.3 291 787.7 349.2 794.3C407.3 801 465.7 821 523.8 827.7C582 834.3 640 827.7 698.2 811C756.3 794.3 814.7 767.7 872.8 787.7C931 807.7 989 874.3 1047.2 904.3C1105.3 934.3 1163.7 927.7 1221.8 894.3C1280 861 1338 801 1396.2 797.7C1454.3 794.3 1512.7 847.7 1570.8 891C1629 934.3 1687 967.7 1745.2 984.3C1803.3 1001 1861.7 1001 1890.8 1001L1920 1001L1920 379L1890.8 392.3C1861.7 405.7 1803.3 432.3 1745.2 475.7C1687 519 1629 579 1570.8 579C1512.7 579 1454.3 519 1396.2 515.7C1338 512.3 1280 565.7 1221.8 565.7C1163.7 565.7 1105.3 512.3 1047.2 479C989 445.7 931 432.3 872.8 462.3C814.7 492.3 756.3 565.7 698.2 589C640 612.3 582 585.7 523.8 525.7C465.7 465.7 407.3 372.3 349.2 382.3C291 392.3 233 505.7 174.8 532.3C116.7 559 58.3 499 29.2 469L0 439Z" fill="#033040"></path><path d="M0 1601L29.2 1577.7C58.3 1554.3 116.7 1507.7 174.8 1494.3C233 1481 291 1501 349.2 1514.3C407.3 1527.7 465.7 1534.3 523.8 1521C582 1507.7 640 1474.3 698.2 1437.7C756.3 1401 814.7 1361 872.8 1367.7C931 1374.3 989 1427.7 1047.2 1447.7C1105.3 1467.7 1163.7 1454.3 1221.8 1447.7C1280 1441 1338 1441 1396.2 1447.7C1454.3 1454.3 1512.7 1467.7 1570.8 1491C1629 1514.3 1687 1547.7 1745.2 1587.7C1803.3 1627.7 1861.7 1674.3 1890.8 1697.7L1920 1721L1920 999L1890.8 999C1861.7 999 1803.3 999 1745.2 982.3C1687 965.7 1629 932.3 1570.8 889C1512.7 845.7 1454.3 792.3 1396.2 795.7C1338 799 1280 859 1221.8 892.3C1163.7 925.7 1105.3 932.3 1047.2 902.3C989 872.3 931 805.7 872.8 785.7C814.7 765.7 756.3 792.3 698.2 809C640 825.7 582 832.3 523.8 825.7C465.7 819 407.3 799 349.2 792.3C291 785.7 233 792.3 174.8 829C116.7 865.7 58.3 932.3 29.2 965.7L0 999Z" fill="#00505e"></path><path d="M0 1761L29.2 1761C58.3 1761 116.7 1761 174.8 1757.7C233 1754.3 291 1747.7 349.2 1761C407.3 1774.3 465.7 1807.7 523.8 1824.3C582 1841 640 1841 698.2 1814.3C756.3 1787.7 814.7 1734.3 872.8 1711C931 1687.7 989 1694.3 1047.2 1707.7C1105.3 1721 1163.7 1741 1221.8 1754.3C1280 1767.7 1338 1774.3 1396.2 1787.7C1454.3 1801 1512.7 1821 1570.8 1811C1629 1801 1687 1761 1745.2 1764.3C1803.3 1767.7 1861.7 1814.3 1890.8 1837.7L1920 1861L1920 1719L1890.8 1695.7C1861.7 1672.3 1803.3 1625.7 1745.2 1585.7C1687 1545.7 1629 1512.3 1570.8 1489C1512.7 1465.7 1454.3 1452.3 1396.2 1445.7C1338 1439 1280 1439 1221.8 1445.7C1163.7 1452.3 1105.3 1465.7 1047.2 1445.7C989 1425.7 931 1372.3 872.8 1365.7C814.7 1359 756.3 1399 698.2 1435.7C640 1472.3 582 1505.7 523.8 1519C465.7 1532.3 407.3 1525.7 349.2 1512.3C291 1499 233 1479 174.8 1492.3C116.7 1505.7 58.3 1552.3 29.2 1575.7L0 1599Z" fill="#007272"></path><path d="M0 2001L29.2 2001C58.3 2001 116.7 2001 174.8 2001C233 2001 291 2001 349.2 2001C407.3 2001 465.7 2001 523.8 2001C582 2001 640 2001 698.2 2001C756.3 2001 814.7 2001 872.8 2001C931 2001 989 2001 1047.2 2001C1105.3 2001 1163.7 2001 1221.8 2001C1280 2001 1338 2001 1396.2 2001C1454.3 2001 1512.7 2001 1570.8 2001C1629 2001 1687 2001 1745.2 2001C1803.3 2001 1861.7 2001 1890.8 2001L1920 2001L1920 1859L1890.8 1835.7C1861.7 1812.3 1803.3 1765.7 1745.2 1762.3C1687 1759 1629 1799 1570.8 1809C1512.7 1819 1454.3 1799 1396.2 1785.7C1338 1772.3 1280 1765.7 1221.8 1752.3C1163.7 1739 1105.3 1719 1047.2 1705.7C989 1692.3 931 1685.7 872.8 1709C814.7 1732.3 756.3 1785.7 698.2 1812.3C640 1839 582 1839 523.8 1822.3C465.7 1805.7 407.3 1772.3 349.2 1759C291 1745.7 233 1752.3 174.8 1755.7C116.7 1759 58.3 1759 29.2 1759L0 1759Z" fill="#009473"></path></svg>