<svg id="visual" viewBox="0 0 1920 1080" width="1920" height="1080" xmlns="http://www.w3.org/2000/svg" xmlns:xlink="http://www.w3.org/1999/xlink" version="1.1"><rect x="0" y="0" width="1920" height="1080" fill="#140021"></rect><path d="M527 0L596 0L596 180L604 180L604 360L552 360L552 540L593 540L593 720L594 720L594 900L538 900L538 1080L0 1080L0 900L0 900L0 720L0 720L0 540L0 540L0 360L0 360L0 180L0 180L0 0L0 0Z" fill="#292e5f"></path><path d="M482 0L480 0L480 180L472 180L472 360L459 360L459 540L424 540L424 720L484 720L484 900L427 900L427 1080L0 1080L0 900L0 900L0 720L0 720L0 540L0 540L0 360L0 360L0 180L0 180L0 0L0 0Z" fill="#324984"></path><path d="M328 0L319 0L319 180L357 180L357 360L345 360L345 540L378 540L378 720L333 720L333 900L335 900L335 1080L0 1080L0 900L0 900L0 720L0 720L0 540L0 540L0 360L0 360L0 180L0 180L0 0L0 0Z" fill="#3466aa"></path><path d="M260 0L264 0L264 180L211 180L211 360L210 360L210 540L258 540L258 720L265 720L265 900L220 900L220 1080L0 1080L0 900L0 900L0 720L0 720L0 540L0 540L0 360L0 360L0 180L0 180L0 0L0 0Z" fill="#2c85d1"></path><path d="M129 0L147 0L147 180L112 180L112 360L142 360L142 540L145 540L145 720L154 720L154 900L107 900L107 1080L0 1080L0 900L0 900L0 720L0 720L0 540L0 540L0 360L0 360L0 180L0 180L0 0L0 0Z" fill="#03a5f7"></path></svg>