<svg id="visual" viewBox="0 0 1920 1080" width="1920" height="1080" xmlns="http://www.w3.org/2000/svg" xmlns:xlink="http://www.w3.org/1999/xlink" version="1.1"><g stroke-width="1" stroke-linejoin="bevel"><path d="M1049.7 575L1102.7 685L1315 549Z" fill="#403092" stroke="#403092"></path><path d="M1102.7 685L1319 739L1315 549Z" fill="#162e78" stroke="#162e78"></path><path d="M1315 549L1075.7 397L1049.7 575Z" fill="#00224a" stroke="#00224a"></path><path d="M1315 549L1279 352L1075.7 397Z" fill="#00101c" stroke="#00101c"></path><path d="M1102.7 685L1315 860L1319 739Z" fill="#00275a" stroke="#00275a"></path><path d="M1075.7 397L847.3 565L1049.7 575Z" fill="#00275a" stroke="#00275a"></path><path d="M1049.7 575L815.3 750L1102.7 685Z" fill="#001d3a" stroke="#001d3a"></path><path d="M1102.7 685L1097.7 908L1315 860Z" fill="#562e9d" stroke="#562e9d"></path><path d="M887.3 877L1097.7 908L1102.7 685Z" fill="#001d3a" stroke="#001d3a"></path><path d="M1496.3 725L1523.3 515L1315 549Z" fill="#001d3a" stroke="#001d3a"></path><path d="M1315 549L1484.3 332L1279 352Z" fill="#162e78" stroke="#162e78"></path><path d="M1496.3 725L1315 549L1319 739Z" fill="#2b3085" stroke="#2b3085"></path><path d="M1315 860L1496.3 725L1319 739Z" fill="#403092" stroke="#403092"></path><path d="M1523.3 515L1484.3 332L1315 549Z" fill="#00172b" stroke="#00172b"></path><path d="M1484.3 332L1273 183L1279 352Z" fill="#6d29a6" stroke="#6d29a6"></path><path d="M1279 352L1103.7 153L1075.7 397Z" fill="#00172b" stroke="#00172b"></path><path d="M1075.7 397L819.3 369L847.3 565Z" fill="#001d3a" stroke="#001d3a"></path><path d="M847.3 565L815.3 750L1049.7 575Z" fill="#00101c" stroke="#00101c"></path><path d="M861.3 207L819.3 369L1075.7 397Z" fill="#562e9d" stroke="#562e9d"></path><path d="M847.3 565L663 552L815.3 750Z" fill="#162e78" stroke="#162e78"></path><path d="M815.3 750L887.3 877L1102.7 685Z" fill="#162e78" stroke="#162e78"></path><path d="M1273 183L1103.7 153L1279 352Z" fill="#00224a" stroke="#00224a"></path><path d="M1315 860L1467.3 907L1496.3 725Z" fill="#00172b" stroke="#00172b"></path><path d="M1294 1080L1467.3 907L1315 860Z" fill="#001d3a" stroke="#001d3a"></path><path d="M1103.7 153L861.3 207L1075.7 397Z" fill="#562e9d" stroke="#562e9d"></path><path d="M1496.3 725L1684.7 688L1523.3 515Z" fill="#00224a" stroke="#00224a"></path><path d="M1711.7 208L1530.3 172L1484.3 332Z" fill="#002b69" stroke="#002b69"></path><path d="M1671.7 909L1684.7 688L1496.3 725Z" fill="#00172b" stroke="#00172b"></path><path d="M1070.7 1080L1294 1080L1097.7 908Z" fill="#2b3085" stroke="#2b3085"></path><path d="M1097.7 908L1294 1080L1315 860Z" fill="#00224a" stroke="#00224a"></path><path d="M887.3 877L1070.7 1080L1097.7 908Z" fill="#00172b" stroke="#00172b"></path><path d="M625 392L663 552L819.3 369Z" fill="#2b3085" stroke="#2b3085"></path><path d="M819.3 369L663 552L847.3 565Z" fill="#562e9d" stroke="#562e9d"></path><path d="M815.3 750L676 877L887.3 877Z" fill="#403092" stroke="#403092"></path><path d="M1723.7 376L1484.3 332L1523.3 515Z" fill="#00101c" stroke="#00101c"></path><path d="M1484.3 332L1530.3 172L1273 183Z" fill="#562e9d" stroke="#562e9d"></path><path d="M1273 183L1294 0L1103.7 153Z" fill="#2b3085" stroke="#2b3085"></path><path d="M1684.7 688L1733.7 571L1523.3 515Z" fill="#6d29a6" stroke="#6d29a6"></path><path d="M1733.7 571L1723.7 376L1523.3 515Z" fill="#403092" stroke="#403092"></path><path d="M1530.3 172L1294 0L1273 183Z" fill="#00172b" stroke="#00172b"></path><path d="M1103.7 153L886.3 0L861.3 207Z" fill="#001d3a" stroke="#001d3a"></path><path d="M655 159L625 392L819.3 369Z" fill="#001d3a" stroke="#001d3a"></path><path d="M602 717L815.3 750L663 552Z" fill="#6d29a6" stroke="#6d29a6"></path><path d="M602 717L676 877L815.3 750Z" fill="#002b69" stroke="#002b69"></path><path d="M887.3 877L856.3 1080L1070.7 1080Z" fill="#001d3a" stroke="#001d3a"></path><path d="M1506.3 1080L1671.7 909L1467.3 907Z" fill="#162e78" stroke="#162e78"></path><path d="M1467.3 907L1671.7 909L1496.3 725Z" fill="#403092" stroke="#403092"></path><path d="M1920 733L1920 573L1733.7 571Z" fill="#00275a" stroke="#00275a"></path><path d="M1294 0L1054.7 0L1103.7 153Z" fill="#562e9d" stroke="#562e9d"></path><path d="M861.3 207L655 159L819.3 369Z" fill="#162e78" stroke="#162e78"></path><path d="M1294 1080L1506.3 1080L1467.3 907Z" fill="#00275a" stroke="#00275a"></path><path d="M407.7 735L602 717L386.7 536Z" fill="#00172b" stroke="#00172b"></path><path d="M676 877L856.3 1080L887.3 877Z" fill="#562e9d" stroke="#562e9d"></path><path d="M1723.7 376L1711.7 208L1484.3 332Z" fill="#00275a" stroke="#00275a"></path><path d="M1530.3 172L1505.3 0L1294 0Z" fill="#00224a" stroke="#00224a"></path><path d="M1054.7 0L886.3 0L1103.7 153Z" fill="#6d29a6" stroke="#6d29a6"></path><path d="M1705.7 0L1505.3 0L1530.3 172Z" fill="#2b3085" stroke="#2b3085"></path><path d="M886.3 0L655 159L861.3 207Z" fill="#562e9d" stroke="#562e9d"></path><path d="M1506.3 1080L1717.7 1080L1671.7 909Z" fill="#562e9d" stroke="#562e9d"></path><path d="M1920 733L1733.7 571L1684.7 688Z" fill="#403092" stroke="#403092"></path><path d="M1920 733L1684.7 688L1671.7 909Z" fill="#002b69" stroke="#002b69"></path><path d="M1733.7 571L1920 573L1723.7 376Z" fill="#00101c" stroke="#00101c"></path><path d="M1723.7 376L1920 325L1711.7 208Z" fill="#001d3a" stroke="#001d3a"></path><path d="M676 877L631 1080L856.3 1080Z" fill="#562e9d" stroke="#562e9d"></path><path d="M413.7 935L631 1080L676 877Z" fill="#00101c" stroke="#00101c"></path><path d="M1920 884L1920 733L1671.7 909Z" fill="#002b69" stroke="#002b69"></path><path d="M886.3 0L663 0L655 159Z" fill="#2b3085" stroke="#2b3085"></path><path d="M386.7 536L663 552L625 392Z" fill="#162e78" stroke="#162e78"></path><path d="M1920 573L1920 325L1723.7 376Z" fill="#00172b" stroke="#00172b"></path><path d="M1711.7 208L1705.7 0L1530.3 172Z" fill="#162e78" stroke="#162e78"></path><path d="M1920 165L1705.7 0L1711.7 208Z" fill="#00224a" stroke="#00224a"></path><path d="M386.7 536L602 717L663 552Z" fill="#562e9d" stroke="#562e9d"></path><path d="M602 717L413.7 935L676 877Z" fill="#6d29a6" stroke="#6d29a6"></path><path d="M386.7 536L625 392L406.7 387Z" fill="#001d3a" stroke="#001d3a"></path><path d="M1717.7 1080L1920 884L1671.7 909Z" fill="#562e9d" stroke="#562e9d"></path><path d="M406.7 387L625 392L389.7 211Z" fill="#002b69" stroke="#002b69"></path><path d="M389.7 211L625 392L655 159Z" fill="#002b69" stroke="#002b69"></path><path d="M1920 325L1920 165L1711.7 208Z" fill="#002b69" stroke="#002b69"></path><path d="M209.3 887L413.7 935L407.7 735Z" fill="#162e78" stroke="#162e78"></path><path d="M407.7 735L413.7 935L602 717Z" fill="#00172b" stroke="#00172b"></path><path d="M205.3 517L229.3 743L386.7 536Z" fill="#002b69" stroke="#002b69"></path><path d="M400.7 0L389.7 211L655 159Z" fill="#001d3a" stroke="#001d3a"></path><path d="M1717.7 1080L1920 1080L1920 884Z" fill="#00275a" stroke="#00275a"></path><path d="M413.7 935L429.7 1080L631 1080Z" fill="#00172b" stroke="#00172b"></path><path d="M1920 165L1920 0L1705.7 0Z" fill="#2b3085" stroke="#2b3085"></path><path d="M386.7 536L229.3 743L407.7 735Z" fill="#00101c" stroke="#00101c"></path><path d="M413.7 935L230.3 1080L429.7 1080Z" fill="#00275a" stroke="#00275a"></path><path d="M233.3 356L386.7 536L406.7 387Z" fill="#403092" stroke="#403092"></path><path d="M663 0L400.7 0L655 159Z" fill="#162e78" stroke="#162e78"></path><path d="M389.7 211L233.3 356L406.7 387Z" fill="#162e78" stroke="#162e78"></path><path d="M249.3 213L233.3 356L389.7 211Z" fill="#403092" stroke="#403092"></path><path d="M233.3 356L205.3 517L386.7 536Z" fill="#6d29a6" stroke="#6d29a6"></path><path d="M400.7 0L249.3 213L389.7 211Z" fill="#2b3085" stroke="#2b3085"></path><path d="M0 339L0 565L205.3 517Z" fill="#562e9d" stroke="#562e9d"></path><path d="M0 865L209.3 887L229.3 743Z" fill="#2b3085" stroke="#2b3085"></path><path d="M229.3 743L209.3 887L407.7 735Z" fill="#002b69" stroke="#002b69"></path><path d="M209.3 887L230.3 1080L413.7 935Z" fill="#162e78" stroke="#162e78"></path><path d="M0 339L205.3 517L233.3 356Z" fill="#162e78" stroke="#162e78"></path><path d="M400.7 0L228.3 0L249.3 213Z" fill="#00275a" stroke="#00275a"></path><path d="M0 339L233.3 356L249.3 213Z" fill="#562e9d" stroke="#562e9d"></path><path d="M205.3 517L0 565L229.3 743Z" fill="#00172b" stroke="#00172b"></path><path d="M209.3 887L0 1080L230.3 1080Z" fill="#6d29a6" stroke="#6d29a6"></path><path d="M0 565L0 729L229.3 743Z" fill="#562e9d" stroke="#562e9d"></path><path d="M0 187L0 339L249.3 213Z" fill="#162e78" stroke="#162e78"></path><path d="M0 729L0 865L229.3 743Z" fill="#403092" stroke="#403092"></path><path d="M228.3 0L0 187L249.3 213Z" fill="#00275a" stroke="#00275a"></path><path d="M0 865L0 1080L209.3 887Z" fill="#562e9d" stroke="#562e9d"></path><path d="M228.3 0L0 0L0 187Z" fill="#6d29a6" stroke="#6d29a6"></path></g></svg>