<svg id="visual" viewBox="0 0 1920 1080" width="1920" height="1080" xmlns="http://www.w3.org/2000/svg" xmlns:xlink="http://www.w3.org/1999/xlink" version="1.1"><path d="M0 325L213 379L427 390L640 336L853 347L1067 390L1280 271L1493 411L1707 303L1920 260L1920 0L1707 0L1493 0L1280 0L1067 0L853 0L640 0L427 0L213 0L0 0Z" fill="#280957"></path><path d="M0 649L213 714L427 617L640 519L853 627L1067 703L1280 757L1493 584L1707 552L1920 627L1920 258L1707 301L1493 409L1280 269L1067 388L853 345L640 334L427 388L213 377L0 323Z" fill="#3b0e61"></path><path d="M0 800L213 876L427 811L640 757L853 908L1067 822L1280 908L1493 822L1707 735L1920 811L1920 625L1707 550L1493 582L1280 755L1067 701L853 625L640 517L427 615L213 712L0 647Z" fill="#4d146a"></path><path d="M0 973L213 973L427 919L640 876L853 984L1067 995L1280 984L1493 919L1707 897L1920 962L1920 809L1707 733L1493 820L1280 906L1067 820L853 906L640 755L427 809L213 874L0 798Z" fill="#5f1a73"></path><path d="M0 1081L213 1081L427 1081L640 1081L853 1081L1067 1081L1280 1081L1493 1081L1707 1081L1920 1081L1920 960L1707 895L1493 917L1280 982L1067 993L853 982L640 874L427 917L213 971L0 971Z" fill="#71207c"></path></svg>