<svg id="visual" viewBox="0 0 1920 1080" width="1920" height="1080" xmlns="http://www.w3.org/2000/svg" xmlns:xlink="http://www.w3.org/1999/xlink" version="1.1"><rect x="0" y="0" width="1920" height="1080" fill="#001220"></rect><path d="M0 322L45.7 315.8C91.3 309.7 182.7 297.3 274.2 289.5C365.7 281.7 457.3 278.3 548.8 304C640.3 329.7 731.7 384.3 823 388.5C914.3 392.7 1005.7 346.3 1097 335.8C1188.3 325.3 1279.7 350.7 1371.2 366.2C1462.7 381.7 1554.3 387.3 1645.8 389.7C1737.3 392 1828.7 391 1874.3 390.5L1920 390L1920 0L1874.3 0C1828.7 0 1737.3 0 1645.8 0C1554.3 0 1462.7 0 1371.2 0C1279.7 0 1188.3 0 1097 0C1005.7 0 914.3 0 823 0C731.7 0 640.3 0 548.8 0C457.3 0 365.7 0 274.2 0C182.7 0 91.3 0 45.7 0L0 0Z" fill="#261077"></path><path d="M0 265L45.7 271C91.3 277 182.7 289 274.2 287.7C365.7 286.3 457.3 271.7 548.8 260.5C640.3 249.3 731.7 241.7 823 257.3C914.3 273 1005.7 312 1097 329C1188.3 346 1279.7 341 1371.2 333C1462.7 325 1554.3 314 1645.8 293.5C1737.3 273 1828.7 243 1874.3 228L1920 213L1920 0L1874.3 0C1828.7 0 1737.3 0 1645.8 0C1554.3 0 1462.7 0 1371.2 0C1279.7 0 1188.3 0 1097 0C1005.7 0 914.3 0 823 0C731.7 0 640.3 0 548.8 0C457.3 0 365.7 0 274.2 0C182.7 0 91.3 0 45.7 0L0 0Z" fill="#391398"></path><path d="M0 221L45.7 215.3C91.3 209.7 182.7 198.3 274.2 195.8C365.7 193.3 457.3 199.7 548.8 216C640.3 232.3 731.7 258.7 823 254.5C914.3 250.3 1005.7 215.7 1097 204.7C1188.3 193.7 1279.7 206.3 1371.2 215.7C1462.7 225 1554.3 231 1645.8 225.8C1737.3 220.7 1828.7 204.3 1874.3 196.2L1920 188L1920 0L1874.3 0C1828.7 0 1737.3 0 1645.8 0C1554.3 0 1462.7 0 1371.2 0C1279.7 0 1188.3 0 1097 0C1005.7 0 914.3 0 823 0C731.7 0 640.3 0 548.8 0C457.3 0 365.7 0 274.2 0C182.7 0 91.3 0 45.7 0L0 0Z" fill="#4f14ba"></path><path d="M0 130L45.7 137.7C91.3 145.3 182.7 160.7 274.2 173.8C365.7 187 457.3 198 548.8 194.5C640.3 191 731.7 173 823 163.3C914.3 153.7 1005.7 152.3 1097 151C1188.3 149.7 1279.7 148.3 1371.2 151.7C1462.7 155 1554.3 163 1645.8 172.5C1737.3 182 1828.7 193 1874.3 198.5L1920 204L1920 0L1874.3 0C1828.7 0 1737.3 0 1645.8 0C1554.3 0 1462.7 0 1371.2 0C1279.7 0 1188.3 0 1097 0C1005.7 0 914.3 0 823 0C731.7 0 640.3 0 548.8 0C457.3 0 365.7 0 274.2 0C182.7 0 91.3 0 45.7 0L0 0Z" fill="#6810dc"></path><path d="M0 111L45.7 113.7C91.3 116.3 182.7 121.7 274.2 113.2C365.7 104.7 457.3 82.3 548.8 79.2C640.3 76 731.7 92 823 92.7C914.3 93.3 1005.7 78.7 1097 73.8C1188.3 69 1279.7 74 1371.2 81.8C1462.7 89.7 1554.3 100.3 1645.8 104.2C1737.3 108 1828.7 105 1874.3 103.5L1920 102L1920 0L1874.3 0C1828.7 0 1737.3 0 1645.8 0C1554.3 0 1462.7 0 1371.2 0C1279.7 0 1188.3 0 1097 0C1005.7 0 914.3 0 823 0C731.7 0 640.3 0 548.8 0C457.3 0 365.7 0 274.2 0C182.7 0 91.3 0 45.7 0L0 0Z" fill="#8301fe"></path></svg>