<svg id="visual" viewBox="0 0 1920 1080" width="1920" height="1080" xmlns="http://www.w3.org/2000/svg" xmlns:xlink="http://www.w3.org/1999/xlink" version="1.1"><rect x="0" y="0" width="1920" height="1080" fill="#001220"></rect><path d="M0 756L45.7 762.2C91.3 768.3 182.7 780.7 274.2 788.5C365.7 796.3 457.3 799.7 548.8 774C640.3 748.3 731.7 693.7 823 689.5C914.3 685.3 1005.7 731.7 1097 742.2C1188.3 752.7 1279.7 727.3 1371.2 711.8C1462.7 696.3 1554.3 690.7 1645.8 688.3C1737.3 686 1828.7 687 1874.3 687.5L1920 688L1920 1081L1874.3 1081C1828.7 1081 1737.3 1081 1645.8 1081C1554.3 1081 1462.7 1081 1371.2 1081C1279.7 1081 1188.3 1081 1097 1081C1005.7 1081 914.3 1081 823 1081C731.7 1081 640.3 1081 548.8 1081C457.3 1081 365.7 1081 274.2 1081C182.7 1081 91.3 1081 45.7 1081L0 1081Z" fill="#bb01ff"></path><path d="M0 813L45.7 807C91.3 801 182.7 789 274.2 790.3C365.7 791.7 457.3 806.3 548.8 817.5C640.3 828.7 731.7 836.3 823 820.7C914.3 805 1005.7 766 1097 749C1188.3 732 1279.7 737 1371.2 745C1462.7 753 1554.3 764 1645.8 784.5C1737.3 805 1828.7 835 1874.3 850L1920 865L1920 1081L1874.3 1081C1828.7 1081 1737.3 1081 1645.8 1081C1554.3 1081 1462.7 1081 1371.2 1081C1279.7 1081 1188.3 1081 1097 1081C1005.7 1081 914.3 1081 823 1081C731.7 1081 640.3 1081 548.8 1081C457.3 1081 365.7 1081 274.2 1081C182.7 1081 91.3 1081 45.7 1081L0 1081Z" fill="#ae00ff"></path><path d="M0 857L45.7 862.7C91.3 868.3 182.7 879.7 274.2 882.2C365.7 884.7 457.3 878.3 548.8 862C640.3 845.7 731.7 819.3 823 823.5C914.3 827.7 1005.7 862.3 1097 873.3C1188.3 884.3 1279.7 871.7 1371.2 862.3C1462.7 853 1554.3 847 1645.8 852.2C1737.3 857.3 1828.7 873.7 1874.3 881.8L1920 890L1920 1081L1874.3 1081C1828.7 1081 1737.3 1081 1645.8 1081C1554.3 1081 1462.7 1081 1371.2 1081C1279.7 1081 1188.3 1081 1097 1081C1005.7 1081 914.3 1081 823 1081C731.7 1081 640.3 1081 548.8 1081C457.3 1081 365.7 1081 274.2 1081C182.7 1081 91.3 1081 45.7 1081L0 1081Z" fill="#a100ff"></path><path d="M0 948L45.7 940.3C91.3 932.7 182.7 917.3 274.2 904.2C365.7 891 457.3 880 548.8 883.5C640.3 887 731.7 905 823 914.7C914.3 924.3 1005.7 925.7 1097 927C1188.3 928.3 1279.7 929.7 1371.2 926.3C1462.7 923 1554.3 915 1645.8 905.5C1737.3 896 1828.7 885 1874.3 879.5L1920 874L1920 1081L1874.3 1081C1828.7 1081 1737.3 1081 1645.8 1081C1554.3 1081 1462.7 1081 1371.2 1081C1279.7 1081 1188.3 1081 1097 1081C1005.7 1081 914.3 1081 823 1081C731.7 1081 640.3 1081 548.8 1081C457.3 1081 365.7 1081 274.2 1081C182.7 1081 91.3 1081 45.7 1081L0 1081Z" fill="#9300ff"></path><path d="M0 967L45.7 964.3C91.3 961.7 182.7 956.3 274.2 964.8C365.7 973.3 457.3 995.7 548.8 998.8C640.3 1002 731.7 986 823 985.3C914.3 984.7 1005.7 999.3 1097 1004.2C1188.3 1009 1279.7 1004 1371.2 996.2C1462.7 988.3 1554.3 977.7 1645.8 973.8C1737.3 970 1828.7 973 1874.3 974.5L1920 976L1920 1081L1874.3 1081C1828.7 1081 1737.3 1081 1645.8 1081C1554.3 1081 1462.7 1081 1371.2 1081C1279.7 1081 1188.3 1081 1097 1081C1005.7 1081 914.3 1081 823 1081C731.7 1081 640.3 1081 548.8 1081C457.3 1081 365.7 1081 274.2 1081C182.7 1081 91.3 1081 45.7 1081L0 1081Z" fill="#8301fe"></path></svg>