<svg id="visual" viewBox="0 0 1920 1080" width="1920" height="1080" xmlns="http://www.w3.org/2000/svg" xmlns:xlink="http://www.w3.org/1999/xlink" version="1.1"><path d="M0 228L29.2 217.2C58.3 206.3 116.7 184.7 174.8 163C233 141.3 291 119.7 349.2 105.3C407.3 91 465.7 84 523.8 84C582 84 640 91 698.2 105.3C756.3 119.7 814.7 141.3 872.8 137.8C931 134.3 989 105.7 1047.2 102C1105.3 98.3 1163.7 119.7 1221.8 121.3C1280 123 1338 105 1396.2 110.5C1454.3 116 1512.7 145 1570.8 143.3C1629 141.7 1687 109.3 1745.2 109.3C1803.3 109.3 1861.7 141.7 1890.8 157.8L1920 174L1920 0L1890.8 0C1861.7 0 1803.3 0 1745.2 0C1687 0 1629 0 1570.8 0C1512.7 0 1454.3 0 1396.2 0C1338 0 1280 0 1221.8 0C1163.7 0 1105.3 0 1047.2 0C989 0 931 0 872.8 0C814.7 0 756.3 0 698.2 0C640 0 582 0 523.8 0C465.7 0 407.3 0 349.2 0C291 0 233 0 174.8 0C116.7 0 58.3 0 29.2 0L0 0Z" fill="#000f19"></path><path d="M0 444L29.2 436.8C58.3 429.7 116.7 415.3 174.8 393.7C233 372 291 343 349.2 326.7C407.3 310.3 465.7 306.7 523.8 299.5C582 292.3 640 281.7 698.2 328.5C756.3 375.3 814.7 479.7 872.8 519.3C931 559 989 534 1047.2 516C1105.3 498 1163.7 487 1221.8 478C1280 469 1338 462 1396.2 458.5C1454.3 455 1512.7 455 1570.8 474.7C1629 494.3 1687 533.7 1745.2 537.2C1803.3 540.7 1861.7 508.3 1890.8 492.2L1920 476L1920 172L1890.8 155.8C1861.7 139.7 1803.3 107.3 1745.2 107.3C1687 107.3 1629 139.7 1570.8 141.3C1512.7 143 1454.3 114 1396.2 108.5C1338 103 1280 121 1221.8 119.3C1163.7 117.7 1105.3 96.3 1047.2 100C989 103.7 931 132.3 872.8 135.8C814.7 139.3 756.3 117.7 698.2 103.3C640 89 582 82 523.8 82C465.7 82 407.3 89 349.2 103.3C291 117.7 233 139.3 174.8 161C116.7 182.7 58.3 204.3 29.2 215.2L0 226Z" fill="#00111c"></path><path d="M0 725L29.2 725C58.3 725 116.7 725 174.8 710.5C233 696 291 667 349.2 665.2C407.3 663.3 465.7 688.7 523.8 692.3C582 696 640 678 698.2 679.8C756.3 681.7 814.7 703.3 872.8 701.5C931 699.7 989 674.3 1047.2 674.3C1105.3 674.3 1163.7 699.7 1221.8 701.5C1280 703.3 1338 681.7 1396.2 670.8C1454.3 660 1512.7 660 1570.8 672.5C1629 685 1687 710 1745.2 738.8C1803.3 767.7 1861.7 800.3 1890.8 816.7L1920 833L1920 474L1890.8 490.2C1861.7 506.3 1803.3 538.7 1745.2 535.2C1687 531.7 1629 492.3 1570.8 472.7C1512.7 453 1454.3 453 1396.2 456.5C1338 460 1280 467 1221.8 476C1163.7 485 1105.3 496 1047.2 514C989 532 931 557 872.8 517.3C814.7 477.7 756.3 373.3 698.2 326.5C640 279.7 582 290.3 523.8 297.5C465.7 304.7 407.3 308.3 349.2 324.7C291 341 233 370 174.8 391.7C116.7 413.3 58.3 427.7 29.2 434.8L0 442Z" fill="#001220"></path><path d="M0 951L29.2 960C58.3 969 116.7 987 174.8 983.5C233 980 291 955 349.2 956.8C407.3 958.7 465.7 987.3 523.8 992.7C582 998 640 980 698.2 974.7C756.3 969.3 814.7 976.7 872.8 971.3C931 966 989 948 1047.2 939C1105.3 930 1163.7 930 1221.8 939C1280 948 1338 966 1396.2 964.2C1454.3 962.3 1512.7 940.7 1570.8 933.5C1629 926.3 1687 933.7 1745.2 942.7C1803.3 951.7 1861.7 962.3 1890.8 967.7L1920 973L1920 831L1890.8 814.7C1861.7 798.3 1803.3 765.7 1745.2 736.8C1687 708 1629 683 1570.8 670.5C1512.7 658 1454.3 658 1396.2 668.8C1338 679.7 1280 701.3 1221.8 699.5C1163.7 697.7 1105.3 672.3 1047.2 672.3C989 672.3 931 697.7 872.8 699.5C814.7 701.3 756.3 679.7 698.2 677.8C640 676 582 694 523.8 690.3C465.7 686.7 407.3 661.3 349.2 663.2C291 665 233 694 174.8 708.5C116.7 723 58.3 723 29.2 723L0 723Z" fill="#012640"></path><path d="M0 1081L29.2 1081C58.3 1081 116.7 1081 174.8 1081C233 1081 291 1081 349.2 1081C407.3 1081 465.7 1081 523.8 1081C582 1081 640 1081 698.2 1081C756.3 1081 814.7 1081 872.8 1081C931 1081 989 1081 1047.2 1081C1105.3 1081 1163.7 1081 1221.8 1081C1280 1081 1338 1081 1396.2 1081C1454.3 1081 1512.7 1081 1570.8 1081C1629 1081 1687 1081 1745.2 1081C1803.3 1081 1861.7 1081 1890.8 1081L1920 1081L1920 971L1890.8 965.7C1861.7 960.3 1803.3 949.7 1745.2 940.7C1687 931.7 1629 924.3 1570.8 931.5C1512.7 938.7 1454.3 960.3 1396.2 962.2C1338 964 1280 946 1221.8 937C1163.7 928 1105.3 928 1047.2 937C989 946 931 964 872.8 969.3C814.7 974.7 756.3 967.3 698.2 972.7C640 978 582 996 523.8 990.7C465.7 985.3 407.3 956.7 349.2 954.8C291 953 233 978 174.8 981.5C116.7 985 58.3 967 29.2 958L0 949Z" fill="#003a62"></path></svg>