<svg id="visual" viewBox="0 0 1920 1080" width="1920" height="1080" xmlns="http://www.w3.org/2000/svg" xmlns:xlink="http://www.w3.org/1999/xlink" version="1.1"><rect x="0" y="0" width="1920" height="1080" fill="#001220"></rect><path d="M0 676L45.7 694.7C91.3 713.3 182.7 750.7 274.2 746C365.7 741.3 457.3 694.7 548.8 668.7C640.3 642.7 731.7 637.3 823 634.5C914.3 631.7 1005.7 631.3 1097 653.7C1188.3 676 1279.7 721 1371.2 722.5C1462.7 724 1554.3 682 1645.8 662.7C1737.3 643.3 1828.7 646.7 1874.3 648.3L1920 650L1920 1081L1874.3 1081C1828.7 1081 1737.3 1081 1645.8 1081C1554.3 1081 1462.7 1081 1371.2 1081C1279.7 1081 1188.3 1081 1097 1081C1005.7 1081 914.3 1081 823 1081C731.7 1081 640.3 1081 548.8 1081C457.3 1081 365.7 1081 274.2 1081C182.7 1081 91.3 1081 45.7 1081L0 1081Z" fill="#2e1f3d"></path><path d="M0 836L45.7 820.8C91.3 805.7 182.7 775.3 274.2 756.8C365.7 738.3 457.3 731.7 548.8 744C640.3 756.3 731.7 787.7 823 807.2C914.3 826.7 1005.7 834.3 1097 839.5C1188.3 844.7 1279.7 847.3 1371.2 837.3C1462.7 827.3 1554.3 804.7 1645.8 792.8C1737.3 781 1828.7 780 1874.3 779.5L1920 779L1920 1081L1874.3 1081C1828.7 1081 1737.3 1081 1645.8 1081C1554.3 1081 1462.7 1081 1371.2 1081C1279.7 1081 1188.3 1081 1097 1081C1005.7 1081 914.3 1081 823 1081C731.7 1081 640.3 1081 548.8 1081C457.3 1081 365.7 1081 274.2 1081C182.7 1081 91.3 1081 45.7 1081L0 1081Z" fill="#45236a"></path><path d="M0 828L45.7 838.5C91.3 849 182.7 870 274.2 869.3C365.7 868.7 457.3 846.3 548.8 830C640.3 813.7 731.7 803.3 823 800C914.3 796.7 1005.7 800.3 1097 800.8C1188.3 801.3 1279.7 798.7 1371.2 816.8C1462.7 835 1554.3 874 1645.8 891C1737.3 908 1828.7 903 1874.3 900.5L1920 898L1920 1081L1874.3 1081C1828.7 1081 1737.3 1081 1645.8 1081C1554.3 1081 1462.7 1081 1371.2 1081C1279.7 1081 1188.3 1081 1097 1081C1005.7 1081 914.3 1081 823 1081C731.7 1081 640.3 1081 548.8 1081C457.3 1081 365.7 1081 274.2 1081C182.7 1081 91.3 1081 45.7 1081L0 1081Z" fill="#5d2399"></path><path d="M0 950L45.7 953.2C91.3 956.3 182.7 962.7 274.2 953.7C365.7 944.7 457.3 920.3 548.8 914C640.3 907.7 731.7 919.3 823 925C914.3 930.7 1005.7 930.3 1097 922.7C1188.3 915 1279.7 900 1371.2 897.3C1462.7 894.7 1554.3 904.3 1645.8 908.7C1737.3 913 1828.7 912 1874.3 911.5L1920 911L1920 1081L1874.3 1081C1828.7 1081 1737.3 1081 1645.8 1081C1554.3 1081 1462.7 1081 1371.2 1081C1279.7 1081 1188.3 1081 1097 1081C1005.7 1081 914.3 1081 823 1081C731.7 1081 640.3 1081 548.8 1081C457.3 1081 365.7 1081 274.2 1081C182.7 1081 91.3 1081 45.7 1081L0 1081Z" fill="#771dcb"></path><path d="M0 1002L45.7 998.5C91.3 995 182.7 988 274.2 986.7C365.7 985.3 457.3 989.7 548.8 995.3C640.3 1001 731.7 1008 823 1014.7C914.3 1021.3 1005.7 1027.7 1097 1030.7C1188.3 1033.7 1279.7 1033.3 1371.2 1031.2C1462.7 1029 1554.3 1025 1645.8 1020.5C1737.3 1016 1828.7 1011 1874.3 1008.5L1920 1006L1920 1081L1874.3 1081C1828.7 1081 1737.3 1081 1645.8 1081C1554.3 1081 1462.7 1081 1371.2 1081C1279.7 1081 1188.3 1081 1097 1081C1005.7 1081 914.3 1081 823 1081C731.7 1081 640.3 1081 548.8 1081C457.3 1081 365.7 1081 274.2 1081C182.7 1081 91.3 1081 45.7 1081L0 1081Z" fill="#9200ff"></path></svg>