<svg id="visual" viewBox="0 0 1920 1080" width="1920" height="1080" xmlns="http://www.w3.org/2000/svg" xmlns:xlink="http://www.w3.org/1999/xlink" version="1.1"><rect x="0" y="0" width="1920" height="1080" fill="#001220"></rect><path d="M0 202L45.7 200.7C91.3 199.3 182.7 196.7 274.2 215.7C365.7 234.7 457.3 275.3 548.8 289.8C640.3 304.3 731.7 292.7 823 291C914.3 289.3 1005.7 297.7 1097 289.5C1188.3 281.3 1279.7 256.7 1371.2 239.3C1462.7 222 1554.3 212 1645.8 209.2C1737.3 206.3 1828.7 210.7 1874.3 212.8L1920 215L1920 0L1874.3 0C1828.7 0 1737.3 0 1645.8 0C1554.3 0 1462.7 0 1371.2 0C1279.7 0 1188.3 0 1097 0C1005.7 0 914.3 0 823 0C731.7 0 640.3 0 548.8 0C457.3 0 365.7 0 274.2 0C182.7 0 91.3 0 45.7 0L0 0Z" fill="#2e1f3d"></path><path d="M0 236L45.7 227.2C91.3 218.3 182.7 200.7 274.2 199.2C365.7 197.7 457.3 212.3 548.8 203.7C640.3 195 731.7 163 823 154.2C914.3 145.3 1005.7 159.7 1097 163.7C1188.3 167.7 1279.7 161.3 1371.2 167.7C1462.7 174 1554.3 193 1645.8 194.8C1737.3 196.7 1828.7 181.3 1874.3 173.7L1920 166L1920 0L1874.3 0C1828.7 0 1737.3 0 1645.8 0C1554.3 0 1462.7 0 1371.2 0C1279.7 0 1188.3 0 1097 0C1005.7 0 914.3 0 823 0C731.7 0 640.3 0 548.8 0C457.3 0 365.7 0 274.2 0C182.7 0 91.3 0 45.7 0L0 0Z" fill="#5d2399"></path><path d="M0 151L45.7 144.5C91.3 138 182.7 125 274.2 111.2C365.7 97.3 457.3 82.7 548.8 80.7C640.3 78.7 731.7 89.3 823 91.8C914.3 94.3 1005.7 88.7 1097 82.5C1188.3 76.3 1279.7 69.7 1371.2 66.3C1462.7 63 1554.3 63 1645.8 65C1737.3 67 1828.7 71 1874.3 73L1920 75L1920 0L1874.3 0C1828.7 0 1737.3 0 1645.8 0C1554.3 0 1462.7 0 1371.2 0C1279.7 0 1188.3 0 1097 0C1005.7 0 914.3 0 823 0C731.7 0 640.3 0 548.8 0C457.3 0 365.7 0 274.2 0C182.7 0 91.3 0 45.7 0L0 0Z" fill="#9200ff"></path></svg>