<svg id="visual" viewBox="0 0 1920 1080" width="1920" height="1080" xmlns="http://www.w3.org/2000/svg" xmlns:xlink="http://www.w3.org/1999/xlink" version="1.1"><path d="M0 455L45.7 411.7C91.3 368.3 182.7 281.7 274.2 254.7C365.7 227.7 457.3 260.3 548.8 283.8C640.3 307.3 731.7 321.7 823 343.2C914.3 364.7 1005.7 393.3 1097 405.8C1188.3 418.3 1279.7 414.7 1371.2 414.7C1462.7 414.7 1554.3 418.3 1645.8 407.7C1737.3 397 1828.7 372 1874.3 359.5L1920 347L1920 0L1874.3 0C1828.7 0 1737.3 0 1645.8 0C1554.3 0 1462.7 0 1371.2 0C1279.7 0 1188.3 0 1097 0C1005.7 0 914.3 0 823 0C731.7 0 640.3 0 548.8 0C457.3 0 365.7 0 274.2 0C182.7 0 91.3 0 45.7 0L0 0Z" fill="#003a62"></path><path d="M0 649L45.7 614.8C91.3 580.7 182.7 512.3 274.2 490.7C365.7 469 457.3 494 548.8 526.3C640.3 558.7 731.7 598.3 823 603.8C914.3 609.3 1005.7 580.7 1097 596.8C1188.3 613 1279.7 674 1371.2 670.3C1462.7 666.7 1554.3 598.3 1645.8 589.3C1737.3 580.3 1828.7 630.7 1874.3 655.8L1920 681L1920 345L1874.3 357.5C1828.7 370 1737.3 395 1645.8 405.7C1554.3 416.3 1462.7 412.7 1371.2 412.7C1279.7 412.7 1188.3 416.3 1097 403.8C1005.7 391.3 914.3 362.7 823 341.2C731.7 319.7 640.3 305.3 548.8 281.8C457.3 258.3 365.7 225.7 274.2 252.7C182.7 279.7 91.3 366.3 45.7 409.7L0 453Z" fill="#021f35"></path><path d="M0 876L45.7 843.5C91.3 811 182.7 746 274.2 717.2C365.7 688.3 457.3 695.7 548.8 708.3C640.3 721 731.7 739 823 730C914.3 721 1005.7 685 1097 695.8C1188.3 706.7 1279.7 764.3 1371.2 780.5C1462.7 796.7 1554.3 771.3 1645.8 767.7C1737.3 764 1828.7 782 1874.3 791L1920 800L1920 679L1874.3 653.8C1828.7 628.7 1737.3 578.3 1645.8 587.3C1554.3 596.3 1462.7 664.7 1371.2 668.3C1279.7 672 1188.3 611 1097 594.8C1005.7 578.7 914.3 607.3 823 601.8C731.7 596.3 640.3 556.7 548.8 524.3C457.3 492 365.7 467 274.2 488.7C182.7 510.3 91.3 578.7 45.7 612.8L0 647Z" fill="#00111e"></path><path d="M0 1081L45.7 1081C91.3 1081 182.7 1081 274.2 1081C365.7 1081 457.3 1081 548.8 1081C640.3 1081 731.7 1081 823 1081C914.3 1081 1005.7 1081 1097 1081C1188.3 1081 1279.7 1081 1371.2 1081C1462.7 1081 1554.3 1081 1645.8 1081C1737.3 1081 1828.7 1081 1874.3 1081L1920 1081L1920 798L1874.3 789C1828.7 780 1737.3 762 1645.8 765.7C1554.3 769.3 1462.7 794.7 1371.2 778.5C1279.7 762.3 1188.3 704.7 1097 693.8C1005.7 683 914.3 719 823 728C731.7 737 640.3 719 548.8 706.3C457.3 693.7 365.7 686.3 274.2 715.2C182.7 744 91.3 809 45.7 841.5L0 874Z" fill="#000f19"></path></svg>