<svg id="visual" viewBox="0 0 1920 1080" width="1920" height="1080" xmlns="http://www.w3.org/2000/svg" xmlns:xlink="http://www.w3.org/1999/xlink" version="1.1"><rect x="0" y="0" width="1920" height="1080" fill="#001220"></rect><path d="M0 876L45.7 877.3C91.3 878.7 182.7 881.3 274.2 862.3C365.7 843.3 457.3 802.7 548.8 788.2C640.3 773.7 731.7 785.3 823 787C914.3 788.7 1005.7 780.3 1097 788.5C1188.3 796.7 1279.7 821.3 1371.2 838.7C1462.7 856 1554.3 866 1645.8 868.8C1737.3 871.7 1828.7 867.3 1874.3 865.2L1920 863L1920 1081L1874.3 1081C1828.7 1081 1737.3 1081 1645.8 1081C1554.3 1081 1462.7 1081 1371.2 1081C1279.7 1081 1188.3 1081 1097 1081C1005.7 1081 914.3 1081 823 1081C731.7 1081 640.3 1081 548.8 1081C457.3 1081 365.7 1081 274.2 1081C182.7 1081 91.3 1081 45.7 1081L0 1081Z" fill="#009473"></path><path d="M0 842L45.7 850.8C91.3 859.7 182.7 877.3 274.2 878.8C365.7 880.3 457.3 865.7 548.8 874.3C640.3 883 731.7 915 823 923.8C914.3 932.7 1005.7 918.3 1097 914.3C1188.3 910.3 1279.7 916.7 1371.2 910.3C1462.7 904 1554.3 885 1645.8 883.2C1737.3 881.3 1828.7 896.7 1874.3 904.3L1920 912L1920 1081L1874.3 1081C1828.7 1081 1737.3 1081 1645.8 1081C1554.3 1081 1462.7 1081 1371.2 1081C1279.7 1081 1188.3 1081 1097 1081C1005.7 1081 914.3 1081 823 1081C731.7 1081 640.3 1081 548.8 1081C457.3 1081 365.7 1081 274.2 1081C182.7 1081 91.3 1081 45.7 1081L0 1081Z" fill="#47b781"></path><path d="M0 927L45.7 933.5C91.3 940 182.7 953 274.2 966.8C365.7 980.7 457.3 995.3 548.8 997.3C640.3 999.3 731.7 988.7 823 986.2C914.3 983.7 1005.7 989.3 1097 995.5C1188.3 1001.7 1279.7 1008.3 1371.2 1011.7C1462.7 1015 1554.3 1015 1645.8 1013C1737.3 1011 1828.7 1007 1874.3 1005L1920 1003L1920 1081L1874.3 1081C1828.7 1081 1737.3 1081 1645.8 1081C1554.3 1081 1462.7 1081 1371.2 1081C1279.7 1081 1188.3 1081 1097 1081C1005.7 1081 914.3 1081 823 1081C731.7 1081 640.3 1081 548.8 1081C457.3 1081 365.7 1081 274.2 1081C182.7 1081 91.3 1081 45.7 1081L0 1081Z" fill="#7adb8c"></path></svg>