<svg id="visual" viewBox="0 0 1920 1080" width="1920" height="1080" xmlns="http://www.w3.org/2000/svg" xmlns:xlink="http://www.w3.org/1999/xlink" version="1.1"><rect x="0" y="0" width="1920" height="1080" fill="#001220"></rect><path d="M0 818L45.7 814.3C91.3 810.7 182.7 803.3 274.2 797C365.7 790.7 457.3 785.3 548.8 777.5C640.3 769.7 731.7 759.3 823 771.2C914.3 783 1005.7 817 1097 820.7C1188.3 824.3 1279.7 797.7 1371.2 790.2C1462.7 782.7 1554.3 794.3 1645.8 808.2C1737.3 822 1828.7 838 1874.3 846L1920 854L1920 1081L1874.3 1081C1828.7 1081 1737.3 1081 1645.8 1081C1554.3 1081 1462.7 1081 1371.2 1081C1279.7 1081 1188.3 1081 1097 1081C1005.7 1081 914.3 1081 823 1081C731.7 1081 640.3 1081 548.8 1081C457.3 1081 365.7 1081 274.2 1081C182.7 1081 91.3 1081 45.7 1081L0 1081Z" fill="#bb01ff"></path><path d="M0 789L45.7 794.3C91.3 799.7 182.7 810.3 274.2 814.5C365.7 818.7 457.3 816.3 548.8 824.2C640.3 832 731.7 850 823 857.8C914.3 865.7 1005.7 863.3 1097 853C1188.3 842.7 1279.7 824.3 1371.2 830C1462.7 835.7 1554.3 865.3 1645.8 881.7C1737.3 898 1828.7 901 1874.3 902.5L1920 904L1920 1081L1874.3 1081C1828.7 1081 1737.3 1081 1645.8 1081C1554.3 1081 1462.7 1081 1371.2 1081C1279.7 1081 1188.3 1081 1097 1081C1005.7 1081 914.3 1081 823 1081C731.7 1081 640.3 1081 548.8 1081C457.3 1081 365.7 1081 274.2 1081C182.7 1081 91.3 1081 45.7 1081L0 1081Z" fill="#ae00ff"></path><path d="M0 907L45.7 907.5C91.3 908 182.7 909 274.2 906.7C365.7 904.3 457.3 898.7 548.8 894C640.3 889.3 731.7 885.7 823 892.3C914.3 899 1005.7 916 1097 921.7C1188.3 927.3 1279.7 921.7 1371.2 921.5C1462.7 921.3 1554.3 926.7 1645.8 919.8C1737.3 913 1828.7 894 1874.3 884.5L1920 875L1920 1081L1874.3 1081C1828.7 1081 1737.3 1081 1645.8 1081C1554.3 1081 1462.7 1081 1371.2 1081C1279.7 1081 1188.3 1081 1097 1081C1005.7 1081 914.3 1081 823 1081C731.7 1081 640.3 1081 548.8 1081C457.3 1081 365.7 1081 274.2 1081C182.7 1081 91.3 1081 45.7 1081L0 1081Z" fill="#a100ff"></path><path d="M0 908L45.7 916C91.3 924 182.7 940 274.2 948.3C365.7 956.7 457.3 957.3 548.8 951.3C640.3 945.3 731.7 932.7 823 925.5C914.3 918.3 1005.7 916.7 1097 920C1188.3 923.3 1279.7 931.7 1371.2 941.7C1462.7 951.7 1554.3 963.3 1645.8 958.3C1737.3 953.3 1828.7 931.7 1874.3 920.8L1920 910L1920 1081L1874.3 1081C1828.7 1081 1737.3 1081 1645.8 1081C1554.3 1081 1462.7 1081 1371.2 1081C1279.7 1081 1188.3 1081 1097 1081C1005.7 1081 914.3 1081 823 1081C731.7 1081 640.3 1081 548.8 1081C457.3 1081 365.7 1081 274.2 1081C182.7 1081 91.3 1081 45.7 1081L0 1081Z" fill="#9200ff"></path><path d="M0 1024L45.7 1017C91.3 1010 182.7 996 274.2 998.7C365.7 1001.3 457.3 1020.7 548.8 1027.5C640.3 1034.3 731.7 1028.7 823 1023.5C914.3 1018.3 1005.7 1013.7 1097 1005.2C1188.3 996.7 1279.7 984.3 1371.2 985.3C1462.7 986.3 1554.3 1000.7 1645.8 1006.5C1737.3 1012.3 1828.7 1009.7 1874.3 1008.3L1920 1007L1920 1081L1874.3 1081C1828.7 1081 1737.3 1081 1645.8 1081C1554.3 1081 1462.7 1081 1371.2 1081C1279.7 1081 1188.3 1081 1097 1081C1005.7 1081 914.3 1081 823 1081C731.7 1081 640.3 1081 548.8 1081C457.3 1081 365.7 1081 274.2 1081C182.7 1081 91.3 1081 45.7 1081L0 1081Z" fill="#8201ff"></path></svg>